<?xml version="1.0" encoding="UTF-8"?>
<!DOCTYPE svg PUBLIC "-//W3C//DTD SVG 1.1//EN" "http://www.w3.org/Graphics/SVG/1.1/DTD/svg11.dtd">
<svg xmlns="http://www.w3.org/2000/svg" version="1.1" width="400px" height="400px" style="shape-rendering:geometricPrecision; text-rendering:geometricPrecision; image-rendering:optimizeQuality; fill-rule:evenodd; clip-rule:evenodd" xmlns:xlink="http://www.w3.org/1999/xlink">
<g><path style="opacity:0.998" fill="#31608b" d="M 49.5,-0.5 C 66.1667,-0.5 82.8333,-0.5 99.5,-0.5C 99.5,16.1667 99.5,32.8333 99.5,49.5C 165.998,50.4992 232.665,50.8325 299.5,50.5C 299.5,58.5 299.5,66.5 299.5,74.5C 316.5,74.5 333.5,74.5 350.5,74.5C 350.5,149.5 350.5,224.5 350.5,299.5C 358.5,299.5 366.5,299.5 374.5,299.5C 374.5,316.5 374.5,333.5 374.5,350.5C 357.833,350.5 341.167,350.5 324.5,350.5C 324.5,341.833 324.5,333.167 324.5,324.5C 316.167,324.5 307.833,324.5 299.5,324.5C 299.5,333.167 299.5,341.833 299.5,350.5C 232.665,350.168 165.998,350.501 99.5,351.5C 99.5,367.5 99.5,383.5 99.5,399.5C 83.1667,399.5 66.8333,399.5 50.5,399.5C 49.5018,266.237 49.1685,132.903 49.5,-0.5 Z M 125.5,99.5 C 183.171,99.1667 240.837,99.5 298.5,100.5C 299.496,166.459 299.83,232.459 299.5,298.5C 279.111,299.399 258.778,299.733 238.5,299.5C 200.67,298.501 162.67,298.168 124.5,298.5C 124.17,232.096 124.504,165.762 125.5,99.5 Z"/></g>
<g><path style="opacity:1" fill="#d4e1ee" d="M 99.5,49.5 C 191.167,49.3333 282.834,49.5 374.5,50C 375.498,133.096 375.832,216.263 375.5,299.5C 375.167,299.5 374.833,299.5 374.5,299.5C 366.5,299.5 358.5,299.5 350.5,299.5C 350.5,224.5 350.5,149.5 350.5,74.5C 333.5,74.5 316.5,74.5 299.5,74.5C 299.5,66.5 299.5,58.5 299.5,50.5C 232.665,50.8325 165.998,50.4992 99.5,49.5 Z"/></g>
<g><path style="opacity:0.994" fill="#d3e0ee" d="M 125.5,99.5 C 124.504,165.762 124.17,232.096 124.5,298.5C 162.67,298.168 200.67,298.501 238.5,299.5C 192.167,299.5 145.833,299.5 99.5,299.5C 99.5,232.833 99.5,166.167 99.5,99.5C 108.167,99.5 116.833,99.5 125.5,99.5 Z"/></g>
<g><path style="opacity:0.999" fill="#d9e4f0" d="M 374.5,299.5 C 374.833,299.5 375.167,299.5 375.5,299.5C 383.5,299.5 391.5,299.5 399.5,299.5C 399.5,316.833 399.5,334.167 399.5,351.5C 299.5,351.5 199.5,351.5 99.5,351.5C 165.998,350.501 232.665,350.168 299.5,350.5C 307.833,350.5 316.167,350.5 324.5,350.5C 341.167,350.5 357.833,350.5 374.5,350.5C 374.5,333.5 374.5,316.5 374.5,299.5 Z"/></g>
<g><path style="opacity:1" fill="#d0deed" d="M 324.5,350.5 C 316.167,350.5 307.833,350.5 299.5,350.5C 299.5,341.833 299.5,333.167 299.5,324.5C 307.833,324.5 316.167,324.5 324.5,324.5C 324.5,333.167 324.5,341.833 324.5,350.5 Z"/></g>
</svg>
